<mxfile host="app.diagrams.net" agent="Mozilla/5.0 (Windows NT 10.0; Win64; x64) AppleWebKit/537.36 (KHTML, like Gecko) Chrome/131.0.0.0 Safari/537.36" version="25.0.3" pages="2">
  <diagram id="fIyinLsVPxJcGKtVKfF8" name="Домашка-1">
    <mxGraphModel dx="3500" dy="1767" grid="1" gridSize="10" guides="1" tooltips="1" connect="1" arrows="1" fold="1" page="1" pageScale="1" pageWidth="827" pageHeight="1169" math="0" shadow="0">
      <root>
        <mxCell id="0" />
        <mxCell id="1" parent="0" />
        <mxCell id="yM7D_Zx7hCc9hggGB5HX-1" value="" style="whiteSpace=wrap;strokeWidth=2;" vertex="1" parent="1">
          <mxGeometry x="2380" y="160" width="327" height="2650" as="geometry" />
        </mxCell>
        <mxCell id="yM7D_Zx7hCc9hggGB5HX-2" value="" style="whiteSpace=wrap;strokeWidth=2;" vertex="1" parent="1">
          <mxGeometry x="1785" y="160" width="595" height="2650" as="geometry" />
        </mxCell>
        <mxCell id="yM7D_Zx7hCc9hggGB5HX-3" value="" style="whiteSpace=wrap;strokeWidth=2;" vertex="1" parent="1">
          <mxGeometry x="1180" y="160" width="605" height="2650" as="geometry" />
        </mxCell>
        <mxCell id="yM7D_Zx7hCc9hggGB5HX-4" value="" style="whiteSpace=wrap;strokeWidth=2;" vertex="1" parent="1">
          <mxGeometry x="600" y="160" width="580" height="2650" as="geometry" />
        </mxCell>
        <mxCell id="yM7D_Zx7hCc9hggGB5HX-5" value="" style="whiteSpace=wrap;strokeWidth=2;" vertex="1" parent="1">
          <mxGeometry x="320" y="160" width="280" height="2650" as="geometry" />
        </mxCell>
        <mxCell id="yM7D_Zx7hCc9hggGB5HX-6" value="Создание заявки на вакансию" style="whiteSpace=wrap;strokeWidth=2;" vertex="1" parent="1">
          <mxGeometry x="340" y="280" width="206" height="66" as="geometry" />
        </mxCell>
        <mxCell id="yM7D_Zx7hCc9hggGB5HX-7" value="Заявка соответствует требованиям?" style="rhombus;strokeWidth=2;whiteSpace=wrap;" vertex="1" parent="1">
          <mxGeometry x="761" y="430" width="225" height="225" as="geometry" />
        </mxCell>
        <mxCell id="yM7D_Zx7hCc9hggGB5HX-8" value="Утверждение заявки" style="whiteSpace=wrap;strokeWidth=2;" vertex="1" parent="1">
          <mxGeometry x="634" y="720" width="214" height="48" as="geometry" />
        </mxCell>
        <mxCell id="yM7D_Zx7hCc9hggGB5HX-9" value="Уведомление о доработке" style="whiteSpace=wrap;strokeWidth=2;" vertex="1" parent="1">
          <mxGeometry x="898" y="720" width="255" height="48" as="geometry" />
        </mxCell>
        <mxCell id="yM7D_Zx7hCc9hggGB5HX-10" value="Публикация вакансии на сайте" style="whiteSpace=wrap;strokeWidth=2;" vertex="1" parent="1">
          <mxGeometry x="620" y="818" width="243" height="66" as="geometry" />
        </mxCell>
        <mxCell id="yM7D_Zx7hCc9hggGB5HX-11" value="Прием заявок от кандидатов" style="whiteSpace=wrap;strokeWidth=2;" vertex="1" parent="1">
          <mxGeometry x="650" y="934" width="182" height="66" as="geometry" />
        </mxCell>
        <mxCell id="yM7D_Zx7hCc9hggGB5HX-12" value="Анкета подходит?" style="rhombus;strokeWidth=2;whiteSpace=wrap;" vertex="1" parent="1">
          <mxGeometry x="1364" y="1088" width="180" height="180" as="geometry" />
        </mxCell>
        <mxCell id="yM7D_Zx7hCc9hggGB5HX-13" value="Приглашение на собеседование" style="whiteSpace=wrap;strokeWidth=2;" vertex="1" parent="1">
          <mxGeometry x="1241" y="1341" width="182" height="66" as="geometry" />
        </mxCell>
        <mxCell id="yM7D_Zx7hCc9hggGB5HX-14" value="Отклонение анкеты" style="whiteSpace=wrap;strokeWidth=2;" vertex="1" parent="1">
          <mxGeometry x="1506" y="1350" width="206" height="48" as="geometry" />
        </mxCell>
        <mxCell id="yM7D_Zx7hCc9hggGB5HX-15" value="Участие в первичном интервью" style="whiteSpace=wrap;strokeWidth=2;" vertex="1" parent="1">
          <mxGeometry x="1440" y="1572" width="219" height="66" as="geometry" />
        </mxCell>
        <mxCell id="yM7D_Zx7hCc9hggGB5HX-16" value="Участие в техническом собеседовании" style="whiteSpace=wrap;strokeWidth=2;" vertex="1" parent="1">
          <mxGeometry x="1432" y="1688" width="233" height="66" as="geometry" />
        </mxCell>
        <mxCell id="yM7D_Zx7hCc9hggGB5HX-17" value="Собеседования успешны?" style="rhombus;strokeWidth=2;whiteSpace=wrap;" vertex="1" parent="1">
          <mxGeometry x="1955" y="1660" width="238" height="238" as="geometry" />
        </mxCell>
        <mxCell id="yM7D_Zx7hCc9hggGB5HX-18" value="Предложение оффера" style="whiteSpace=wrap;strokeWidth=2;" vertex="1" parent="1">
          <mxGeometry x="1820" y="1971" width="226" height="48" as="geometry" />
        </mxCell>
        <mxCell id="yM7D_Zx7hCc9hggGB5HX-19" value="Уведомление об отказе" style="whiteSpace=wrap;strokeWidth=2;" vertex="1" parent="1">
          <mxGeometry x="2097" y="1971" width="236" height="48" as="geometry" />
        </mxCell>
        <mxCell id="yM7D_Zx7hCc9hggGB5HX-20" value="Кандидат подтверждает оффер" style="whiteSpace=wrap;strokeWidth=2;" vertex="1" parent="1">
          <mxGeometry x="1814" y="2069" width="240" height="66" as="geometry" />
        </mxCell>
        <mxCell id="yM7D_Zx7hCc9hggGB5HX-21" value="Добавление сотрудника в базу данных" style="whiteSpace=wrap;strokeWidth=2;" vertex="1" parent="1">
          <mxGeometry x="1808" y="2185" width="252" height="66" as="geometry" />
        </mxCell>
        <mxCell id="yM7D_Zx7hCc9hggGB5HX-22" value="Уведомление IT-отдела" style="whiteSpace=wrap;strokeWidth=2;" vertex="1" parent="1">
          <mxGeometry x="1816" y="2301" width="234" height="48" as="geometry" />
        </mxCell>
        <mxCell id="yM7D_Zx7hCc9hggGB5HX-23" value="Настройка рабочего места" style="whiteSpace=wrap;strokeWidth=2;" vertex="1" parent="1">
          <mxGeometry x="2403" y="2460" width="257" height="48" as="geometry" />
        </mxCell>
        <mxCell id="yM7D_Zx7hCc9hggGB5HX-24" value="" style="startArrow=none;endArrow=block;exitX=0.5;exitY=1;entryX=0.5;entryY=0;rounded=0;edgeStyle=orthogonalEdgeStyle;exitDx=0;exitDy=0;" edge="1" parent="1" source="yM7D_Zx7hCc9hggGB5HX-6" target="yM7D_Zx7hCc9hggGB5HX-7">
          <mxGeometry relative="1" as="geometry">
            <mxPoint x="230.00000000000045" y="330" as="sourcePoint" />
          </mxGeometry>
        </mxCell>
        <mxCell id="yM7D_Zx7hCc9hggGB5HX-25" value="Да" style="startArrow=none;endArrow=block;exitX=0;exitY=0.98;entryX=0.5;entryY=0;rounded=0;edgeStyle=orthogonalEdgeStyle;" edge="1" parent="1" source="yM7D_Zx7hCc9hggGB5HX-7" target="yM7D_Zx7hCc9hggGB5HX-8">
          <mxGeometry relative="1" as="geometry" />
        </mxCell>
        <mxCell id="yM7D_Zx7hCc9hggGB5HX-26" value="Нет" style="startArrow=none;endArrow=block;exitX=1;exitY=0.98;entryX=0.5;entryY=0;rounded=0;edgeStyle=orthogonalEdgeStyle;" edge="1" parent="1" source="yM7D_Zx7hCc9hggGB5HX-7" target="yM7D_Zx7hCc9hggGB5HX-9">
          <mxGeometry relative="1" as="geometry" />
        </mxCell>
        <mxCell id="yM7D_Zx7hCc9hggGB5HX-27" value="" style="curved=1;startArrow=none;endArrow=block;exitX=0.5;exitY=1.01;entryX=0.5;entryY=0.01;rounded=0;" edge="1" parent="1" source="yM7D_Zx7hCc9hggGB5HX-8" target="yM7D_Zx7hCc9hggGB5HX-10">
          <mxGeometry relative="1" as="geometry">
            <Array as="points" />
          </mxGeometry>
        </mxCell>
        <mxCell id="yM7D_Zx7hCc9hggGB5HX-28" value="" style="curved=1;startArrow=none;endArrow=block;exitX=0.5;exitY=1.01;entryX=0.5;entryY=0.01;rounded=0;" edge="1" parent="1" source="yM7D_Zx7hCc9hggGB5HX-10" target="yM7D_Zx7hCc9hggGB5HX-11">
          <mxGeometry relative="1" as="geometry">
            <Array as="points" />
          </mxGeometry>
        </mxCell>
        <mxCell id="yM7D_Zx7hCc9hggGB5HX-29" value="" style="startArrow=none;endArrow=block;exitX=0.5;exitY=1;entryX=0.5;entryY=0;rounded=0;edgeStyle=orthogonalEdgeStyle;exitDx=0;exitDy=0;" edge="1" parent="1" source="yM7D_Zx7hCc9hggGB5HX-11" target="yM7D_Zx7hCc9hggGB5HX-12">
          <mxGeometry relative="1" as="geometry">
            <mxPoint x="704" y="1120" as="sourcePoint" />
          </mxGeometry>
        </mxCell>
        <mxCell id="yM7D_Zx7hCc9hggGB5HX-30" value="Да" style="startArrow=none;endArrow=block;exitX=0.02;exitY=1;entryX=0.5;entryY=0;rounded=0;edgeStyle=orthogonalEdgeStyle;" edge="1" parent="1" source="yM7D_Zx7hCc9hggGB5HX-12" target="yM7D_Zx7hCc9hggGB5HX-13">
          <mxGeometry relative="1" as="geometry" />
        </mxCell>
        <mxCell id="yM7D_Zx7hCc9hggGB5HX-31" value="Нет" style="startArrow=none;endArrow=block;exitX=1;exitY=0.91;entryX=0.5;entryY=0;rounded=0;edgeStyle=orthogonalEdgeStyle;" edge="1" parent="1" source="yM7D_Zx7hCc9hggGB5HX-12" target="yM7D_Zx7hCc9hggGB5HX-14">
          <mxGeometry relative="1" as="geometry" />
        </mxCell>
        <mxCell id="yM7D_Zx7hCc9hggGB5HX-32" value="" style="startArrow=none;endArrow=block;exitX=0.5;exitY=1;entryX=0.5;entryY=0;rounded=0;edgeStyle=orthogonalEdgeStyle;" edge="1" parent="1" source="yM7D_Zx7hCc9hggGB5HX-13" target="yM7D_Zx7hCc9hggGB5HX-15">
          <mxGeometry relative="1" as="geometry" />
        </mxCell>
        <mxCell id="yM7D_Zx7hCc9hggGB5HX-33" value="" style="curved=1;startArrow=none;endArrow=block;exitX=0.5;exitY=1;entryX=0.5;entryY=0;rounded=0;" edge="1" parent="1" source="yM7D_Zx7hCc9hggGB5HX-15" target="yM7D_Zx7hCc9hggGB5HX-16">
          <mxGeometry relative="1" as="geometry">
            <Array as="points" />
          </mxGeometry>
        </mxCell>
        <mxCell id="yM7D_Zx7hCc9hggGB5HX-34" value="" style="startArrow=none;endArrow=block;exitX=0.5;exitY=1;entryX=0.5;entryY=0;rounded=0;exitDx=0;exitDy=0;edgeStyle=orthogonalEdgeStyle;" edge="1" parent="1" source="yM7D_Zx7hCc9hggGB5HX-16" target="yM7D_Zx7hCc9hggGB5HX-17">
          <mxGeometry relative="1" as="geometry">
            <mxPoint x="2921.5" y="1555.0000000000005" as="sourcePoint" />
          </mxGeometry>
        </mxCell>
        <mxCell id="yM7D_Zx7hCc9hggGB5HX-35" value="Да" style="startArrow=none;endArrow=block;exitX=0.05;exitY=1;entryX=0.5;entryY=-0.01;rounded=0;edgeStyle=orthogonalEdgeStyle;" edge="1" parent="1" source="yM7D_Zx7hCc9hggGB5HX-17" target="yM7D_Zx7hCc9hggGB5HX-18">
          <mxGeometry relative="1" as="geometry" />
        </mxCell>
        <mxCell id="yM7D_Zx7hCc9hggGB5HX-36" value="Нет" style="startArrow=none;endArrow=block;exitX=0.95;exitY=1;entryX=0.5;entryY=-0.01;rounded=0;edgeStyle=orthogonalEdgeStyle;" edge="1" parent="1" source="yM7D_Zx7hCc9hggGB5HX-17" target="yM7D_Zx7hCc9hggGB5HX-19">
          <mxGeometry relative="1" as="geometry" />
        </mxCell>
        <mxCell id="yM7D_Zx7hCc9hggGB5HX-37" value="" style="curved=1;startArrow=none;endArrow=block;exitX=0.5;exitY=1;entryX=0.5;entryY=0;rounded=0;" edge="1" parent="1" source="yM7D_Zx7hCc9hggGB5HX-18" target="yM7D_Zx7hCc9hggGB5HX-20">
          <mxGeometry relative="1" as="geometry">
            <Array as="points" />
          </mxGeometry>
        </mxCell>
        <mxCell id="yM7D_Zx7hCc9hggGB5HX-38" value="" style="curved=1;startArrow=none;endArrow=block;exitX=0.5;exitY=1;entryX=0.5;entryY=0;rounded=0;" edge="1" parent="1" source="yM7D_Zx7hCc9hggGB5HX-20" target="yM7D_Zx7hCc9hggGB5HX-21">
          <mxGeometry relative="1" as="geometry">
            <Array as="points" />
          </mxGeometry>
        </mxCell>
        <mxCell id="yM7D_Zx7hCc9hggGB5HX-39" value="" style="curved=1;startArrow=none;endArrow=block;exitX=0.5;exitY=1;entryX=0.5;entryY=0;rounded=0;" edge="1" parent="1" source="yM7D_Zx7hCc9hggGB5HX-21" target="yM7D_Zx7hCc9hggGB5HX-22">
          <mxGeometry relative="1" as="geometry">
            <Array as="points" />
          </mxGeometry>
        </mxCell>
        <mxCell id="yM7D_Zx7hCc9hggGB5HX-40" value="" style="startArrow=none;endArrow=block;exitX=0.5;exitY=1.01;entryX=0.5;entryY=0.01;rounded=0;edgeStyle=orthogonalEdgeStyle;" edge="1" parent="1" source="yM7D_Zx7hCc9hggGB5HX-22" target="yM7D_Zx7hCc9hggGB5HX-23">
          <mxGeometry relative="1" as="geometry" />
        </mxCell>
        <mxCell id="MHqDVaKGXqhPKhVE3h1P-1" value="Руководитель отдела" style="rounded=0;whiteSpace=wrap;html=1;perimeterSpacing=1;strokeWidth=2;" vertex="1" parent="1">
          <mxGeometry x="320" y="140" width="280" height="20" as="geometry" />
        </mxCell>
        <mxCell id="MHqDVaKGXqhPKhVE3h1P-2" value="HR-отдел" style="rounded=0;whiteSpace=wrap;html=1;perimeterSpacing=1;strokeWidth=2;" vertex="1" parent="1">
          <mxGeometry x="600" y="140" width="580" height="20" as="geometry" />
        </mxCell>
        <mxCell id="MHqDVaKGXqhPKhVE3h1P-3" value="Система" style="rounded=0;whiteSpace=wrap;html=1;perimeterSpacing=1;strokeWidth=2;" vertex="1" parent="1">
          <mxGeometry x="1785" y="140" width="595" height="20" as="geometry" />
        </mxCell>
        <mxCell id="MHqDVaKGXqhPKhVE3h1P-4" value="Кандидаты" style="rounded=0;whiteSpace=wrap;html=1;perimeterSpacing=1;strokeWidth=2;" vertex="1" parent="1">
          <mxGeometry x="1180" y="140" width="605" height="20" as="geometry" />
        </mxCell>
        <mxCell id="MHqDVaKGXqhPKhVE3h1P-5" value="IT-отдел" style="rounded=0;whiteSpace=wrap;html=1;perimeterSpacing=1;strokeWidth=2;" vertex="1" parent="1">
          <mxGeometry x="2380" y="140" width="327" height="20" as="geometry" />
        </mxCell>
        <mxCell id="MHqDVaKGXqhPKhVE3h1P-6" value="&lt;span style=&quot;font-size: 12pt;&quot; lang=&quot;RU&quot;&gt;&lt;font face=&quot;Helvetica&quot;&gt;Система управления&lt;br&gt;процессом найма&lt;/font&gt;&lt;/span&gt;" style="rounded=0;whiteSpace=wrap;html=1;perimeterSpacing=1;strokeWidth=2;" vertex="1" parent="1">
          <mxGeometry x="320" y="100" width="2387" height="40" as="geometry" />
        </mxCell>
        <mxCell id="WwjEuan7C586176A6DRr-1" value="" style="shape=ellipse;html=1;fillColor=strokeColor;fontSize=18;fontColor=#ffffff;" vertex="1" parent="1">
          <mxGeometry x="418" y="190" width="40" height="40" as="geometry" />
        </mxCell>
        <mxCell id="WwjEuan7C586176A6DRr-2" value="" style="shape=mxgraph.sysml.actFinal;html=1;verticalLabelPosition=bottom;labelBackgroundColor=#ffffff;verticalAlign=top;" vertex="1" parent="1">
          <mxGeometry x="2511.5" y="2536" width="40" height="40" as="geometry" />
        </mxCell>
        <mxCell id="WwjEuan7C586176A6DRr-3" style="edgeStyle=orthogonalEdgeStyle;rounded=0;orthogonalLoop=1;jettySize=auto;html=1;entryX=0.479;entryY=-0.013;entryDx=0;entryDy=0;entryPerimeter=0;" edge="1" parent="1" source="WwjEuan7C586176A6DRr-1" target="yM7D_Zx7hCc9hggGB5HX-6">
          <mxGeometry relative="1" as="geometry" />
        </mxCell>
        <mxCell id="WwjEuan7C586176A6DRr-4" style="edgeStyle=orthogonalEdgeStyle;rounded=0;orthogonalLoop=1;jettySize=auto;html=1;exitX=0.5;exitY=1;exitDx=0;exitDy=0;entryX=0.5;entryY=0;entryDx=0;entryDy=0;entryPerimeter=0;" edge="1" parent="1" source="yM7D_Zx7hCc9hggGB5HX-23" target="WwjEuan7C586176A6DRr-2">
          <mxGeometry relative="1" as="geometry" />
        </mxCell>
      </root>
    </mxGraphModel>
  </diagram>
  <diagram id="nQ9IulZjWbQSgyDTY_Yk" name="Домашка-2">
    <mxGraphModel dx="3000" dy="1514" grid="1" gridSize="10" guides="1" tooltips="1" connect="1" arrows="1" fold="1" page="1" pageScale="1" pageWidth="827" pageHeight="1169" math="0" shadow="0">
      <root>
        <mxCell id="0" />
        <mxCell id="1" parent="0" />
        <mxCell id="g66YorYMhVkRxxL-ma4l-1" value="Клиент" style="shape=umlLifeline;perimeter=lifelinePerimeter;whiteSpace=wrap;container=1;dropTarget=0;collapsible=0;recursiveResize=0;outlineConnect=0;portConstraint=eastwest;newEdgeStyle={&quot;edgeStyle&quot;:&quot;elbowEdgeStyle&quot;,&quot;elbow&quot;:&quot;vertical&quot;,&quot;curved&quot;:0,&quot;rounded&quot;:0};size=65;" vertex="1" parent="1">
          <mxGeometry x="20" y="20" width="150" height="1470" as="geometry" />
        </mxCell>
        <mxCell id="g66YorYMhVkRxxL-ma4l-34" value="" style="shape=umlDestroy;whiteSpace=wrap;html=1;strokeWidth=3;targetShapes=umlLifeline;" vertex="1" parent="g66YorYMhVkRxxL-ma4l-1">
          <mxGeometry x="60" y="1440" width="30" height="30" as="geometry" />
        </mxCell>
        <mxCell id="g66YorYMhVkRxxL-ma4l-2" value="Система" style="shape=umlLifeline;perimeter=lifelinePerimeter;whiteSpace=wrap;container=1;dropTarget=0;collapsible=0;recursiveResize=0;outlineConnect=0;portConstraint=eastwest;newEdgeStyle={&quot;edgeStyle&quot;:&quot;elbowEdgeStyle&quot;,&quot;elbow&quot;:&quot;vertical&quot;,&quot;curved&quot;:0,&quot;rounded&quot;:0};size=65;" vertex="1" parent="1">
          <mxGeometry x="431" y="20" width="150" height="1470" as="geometry" />
        </mxCell>
        <mxCell id="g66YorYMhVkRxxL-ma4l-35" value="" style="shape=umlDestroy;whiteSpace=wrap;html=1;strokeWidth=3;targetShapes=umlLifeline;" vertex="1" parent="g66YorYMhVkRxxL-ma4l-2">
          <mxGeometry x="60" y="1440" width="30" height="30" as="geometry" />
        </mxCell>
        <mxCell id="g66YorYMhVkRxxL-ma4l-3" value="Платежный шлюз" style="shape=umlLifeline;perimeter=lifelinePerimeter;whiteSpace=wrap;container=1;dropTarget=0;collapsible=0;recursiveResize=0;outlineConnect=0;portConstraint=eastwest;newEdgeStyle={&quot;edgeStyle&quot;:&quot;elbowEdgeStyle&quot;,&quot;elbow&quot;:&quot;vertical&quot;,&quot;curved&quot;:0,&quot;rounded&quot;:0};size=65;" vertex="1" parent="1">
          <mxGeometry x="685" y="20" width="151" height="1470" as="geometry" />
        </mxCell>
        <mxCell id="g66YorYMhVkRxxL-ma4l-36" value="" style="shape=umlDestroy;whiteSpace=wrap;html=1;strokeWidth=3;targetShapes=umlLifeline;" vertex="1" parent="g66YorYMhVkRxxL-ma4l-3">
          <mxGeometry x="60.5" y="1440" width="30" height="30" as="geometry" />
        </mxCell>
        <mxCell id="g66YorYMhVkRxxL-ma4l-4" value="Администратор" style="shape=umlLifeline;perimeter=lifelinePerimeter;whiteSpace=wrap;container=1;dropTarget=0;collapsible=0;recursiveResize=0;outlineConnect=0;portConstraint=eastwest;newEdgeStyle={&quot;edgeStyle&quot;:&quot;elbowEdgeStyle&quot;,&quot;elbow&quot;:&quot;vertical&quot;,&quot;curved&quot;:0,&quot;rounded&quot;:0};size=65;" vertex="1" parent="1">
          <mxGeometry x="886" y="20" width="150" height="1470" as="geometry" />
        </mxCell>
        <mxCell id="g66YorYMhVkRxxL-ma4l-37" value="" style="shape=umlDestroy;whiteSpace=wrap;html=1;strokeWidth=3;targetShapes=umlLifeline;" vertex="1" parent="g66YorYMhVkRxxL-ma4l-4">
          <mxGeometry x="60" y="1440" width="30" height="30" as="geometry" />
        </mxCell>
        <mxCell id="g66YorYMhVkRxxL-ma4l-5" value="Подрядчики" style="shape=umlLifeline;perimeter=lifelinePerimeter;whiteSpace=wrap;container=1;dropTarget=0;collapsible=0;recursiveResize=0;outlineConnect=0;portConstraint=eastwest;newEdgeStyle={&quot;edgeStyle&quot;:&quot;elbowEdgeStyle&quot;,&quot;elbow&quot;:&quot;vertical&quot;,&quot;curved&quot;:0,&quot;rounded&quot;:0};size=65;" vertex="1" parent="1">
          <mxGeometry x="1086" y="20" width="150" height="1470" as="geometry" />
        </mxCell>
        <mxCell id="g66YorYMhVkRxxL-ma4l-38" value="" style="shape=umlDestroy;whiteSpace=wrap;html=1;strokeWidth=3;targetShapes=umlLifeline;" vertex="1" parent="g66YorYMhVkRxxL-ma4l-5">
          <mxGeometry x="60" y="1440" width="30" height="30" as="geometry" />
        </mxCell>
        <mxCell id="g66YorYMhVkRxxL-ma4l-6" value="Менеджер" style="shape=umlLifeline;perimeter=lifelinePerimeter;whiteSpace=wrap;container=1;dropTarget=0;collapsible=0;recursiveResize=0;outlineConnect=0;portConstraint=eastwest;newEdgeStyle={&quot;edgeStyle&quot;:&quot;elbowEdgeStyle&quot;,&quot;elbow&quot;:&quot;vertical&quot;,&quot;curved&quot;:0,&quot;rounded&quot;:0};size=65;" vertex="1" parent="1">
          <mxGeometry x="1286" y="20" width="150" height="1470" as="geometry" />
        </mxCell>
        <mxCell id="g66YorYMhVkRxxL-ma4l-39" value="" style="shape=umlDestroy;whiteSpace=wrap;html=1;strokeWidth=3;targetShapes=umlLifeline;" vertex="1" parent="g66YorYMhVkRxxL-ma4l-6">
          <mxGeometry x="60" y="1440" width="30" height="30" as="geometry" />
        </mxCell>
        <mxCell id="g66YorYMhVkRxxL-ma4l-7" value="alt" style="shape=umlFrame;pointerEvents=0;dropTarget=0;strokeColor=#000000;height=20;width=30;strokeWidth=2;" vertex="1" parent="1">
          <mxGeometry x="84" y="233" width="433" height="202" as="geometry" />
        </mxCell>
        <mxCell id="g66YorYMhVkRxxL-ma4l-8" value="[Площадка доступна]" style="text;strokeColor=none;fillColor=none;align=center;verticalAlign=middle;whiteSpace=wrap;" vertex="1" parent="g66YorYMhVkRxxL-ma4l-7">
          <mxGeometry x="30" width="403" height="20" as="geometry" />
        </mxCell>
        <mxCell id="g66YorYMhVkRxxL-ma4l-9" value="[Площадка недоступна]" style="shape=line;dashed=1;whiteSpace=wrap;verticalAlign=top;labelPosition=center;verticalLabelPosition=middle;align=center;strokeColor=#B3B3B3;" vertex="1" parent="g66YorYMhVkRxxL-ma4l-7">
          <mxGeometry y="106" width="433" height="3" as="geometry" />
        </mxCell>
        <mxCell id="g66YorYMhVkRxxL-ma4l-10" value="alt" style="shape=umlFrame;pointerEvents=0;dropTarget=0;strokeColor=#000000;height=20;width=30;strokeWidth=2;align=center;verticalAlign=middle;fontFamily=Helvetica;fontSize=12;fontColor=default;fillColor=default;" vertex="1" parent="1">
          <mxGeometry x="84" y="553" width="888" height="364" as="geometry" />
        </mxCell>
        <mxCell id="g66YorYMhVkRxxL-ma4l-11" value="[Платеж успешен]" style="text;strokeColor=none;fillColor=none;align=center;verticalAlign=middle;whiteSpace=wrap;fontFamily=Helvetica;fontSize=12;fontColor=default;" vertex="1" parent="g66YorYMhVkRxxL-ma4l-10">
          <mxGeometry x="30" width="858" height="20" as="geometry" />
        </mxCell>
        <mxCell id="g66YorYMhVkRxxL-ma4l-12" value="[Платеж отклонен]" style="shape=line;dashed=1;whiteSpace=wrap;verticalAlign=middle;labelPosition=center;verticalLabelPosition=middle;align=center;strokeColor=#000000;pointerEvents=0;strokeWidth=1;fontFamily=Helvetica;fontSize=12;fontColor=default;fillColor=default;" vertex="1" parent="g66YorYMhVkRxxL-ma4l-10">
          <mxGeometry y="214" width="888" height="3" as="geometry" />
        </mxCell>
        <mxCell id="g66YorYMhVkRxxL-ma4l-13" value="par" style="shape=umlFrame;pointerEvents=0;dropTarget=0;strokeColor=#000000;height=20;width=30;strokeWidth=2;align=center;verticalAlign=middle;fontFamily=Helvetica;fontSize=12;fontColor=default;fillColor=default;" vertex="1" parent="1">
          <mxGeometry x="495" y="1035" width="677" height="180" as="geometry" />
        </mxCell>
        <mxCell id="g66YorYMhVkRxxL-ma4l-14" value="[Выполнение задач]" style="text;strokeColor=none;fillColor=none;align=center;verticalAlign=middle;whiteSpace=wrap;fontFamily=Helvetica;fontSize=12;fontColor=default;" vertex="1" parent="g66YorYMhVkRxxL-ma4l-13">
          <mxGeometry x="30" width="647" height="20" as="geometry" />
        </mxCell>
        <mxCell id="g66YorYMhVkRxxL-ma4l-15" value="" style="shape=line;dashed=1;whiteSpace=wrap;verticalAlign=middle;labelPosition=center;verticalLabelPosition=middle;align=center;strokeColor=#000000;pointerEvents=0;strokeWidth=2;fontFamily=Helvetica;fontSize=12;fontColor=default;fillColor=default;" vertex="1" parent="g66YorYMhVkRxxL-ma4l-13">
          <mxGeometry y="106" width="677" as="geometry" />
        </mxCell>
        <mxCell id="g66YorYMhVkRxxL-ma4l-16" value="Запрос на доступность площадки" style="verticalAlign=bottom;edgeStyle=elbowEdgeStyle;elbow=vertical;curved=0;rounded=0;endArrow=block;" edge="1" parent="1" source="g66YorYMhVkRxxL-ma4l-1" target="g66YorYMhVkRxxL-ma4l-2">
          <mxGeometry relative="1" as="geometry">
            <Array as="points">
              <mxPoint x="309" y="129" />
            </Array>
          </mxGeometry>
        </mxCell>
        <mxCell id="g66YorYMhVkRxxL-ma4l-17" value="Проверка доступности площадки" style="curved=1;endArrow=block;rounded=0;" edge="1" parent="1" source="g66YorYMhVkRxxL-ma4l-2" target="g66YorYMhVkRxxL-ma4l-2">
          <mxGeometry relative="1" as="geometry">
            <Array as="points">
              <mxPoint x="557" y="183" />
              <mxPoint x="557" y="213" />
            </Array>
          </mxGeometry>
        </mxCell>
        <mxCell id="g66YorYMhVkRxxL-ma4l-18" value="Информация о стоимости и условиях" style="verticalAlign=bottom;edgeStyle=elbowEdgeStyle;elbow=vertical;curved=0;rounded=0;dashed=1;dashPattern=2 3;endArrow=block;" edge="1" parent="1" source="g66YorYMhVkRxxL-ma4l-2" target="g66YorYMhVkRxxL-ma4l-1">
          <mxGeometry relative="1" as="geometry">
            <Array as="points">
              <mxPoint x="312" y="314" />
            </Array>
          </mxGeometry>
        </mxCell>
        <mxCell id="g66YorYMhVkRxxL-ma4l-19" value="Предложение выбрать другую дату/площадку" style="verticalAlign=bottom;edgeStyle=elbowEdgeStyle;elbow=vertical;curved=0;rounded=0;dashed=1;dashPattern=2 3;endArrow=block;" edge="1" parent="1" source="g66YorYMhVkRxxL-ma4l-2" target="g66YorYMhVkRxxL-ma4l-1">
          <mxGeometry relative="1" as="geometry">
            <Array as="points">
              <mxPoint x="312" y="415" />
            </Array>
          </mxGeometry>
        </mxCell>
        <mxCell id="g66YorYMhVkRxxL-ma4l-20" value="Подтверждение бронирования" style="verticalAlign=bottom;edgeStyle=elbowEdgeStyle;elbow=vertical;curved=0;rounded=0;endArrow=block;" edge="1" parent="1" source="g66YorYMhVkRxxL-ma4l-1" target="g66YorYMhVkRxxL-ma4l-2">
          <mxGeometry relative="1" as="geometry">
            <Array as="points">
              <mxPoint x="309" y="479" />
            </Array>
          </mxGeometry>
        </mxCell>
        <mxCell id="g66YorYMhVkRxxL-ma4l-21" value="Запрос на оплату" style="verticalAlign=bottom;edgeStyle=elbowEdgeStyle;elbow=vertical;curved=0;rounded=0;endArrow=block;" edge="1" parent="1" source="g66YorYMhVkRxxL-ma4l-2" target="g66YorYMhVkRxxL-ma4l-3">
          <mxGeometry relative="1" as="geometry">
            <Array as="points">
              <mxPoint x="642" y="533" />
            </Array>
          </mxGeometry>
        </mxCell>
        <mxCell id="g66YorYMhVkRxxL-ma4l-22" value="Подтверждение платежа" style="verticalAlign=bottom;edgeStyle=elbowEdgeStyle;elbow=vertical;curved=0;rounded=0;dashed=1;dashPattern=2 3;endArrow=block;" edge="1" parent="1" source="g66YorYMhVkRxxL-ma4l-3" target="g66YorYMhVkRxxL-ma4l-2">
          <mxGeometry relative="1" as="geometry">
            <Array as="points">
              <mxPoint x="645" y="634" />
            </Array>
          </mxGeometry>
        </mxCell>
        <mxCell id="g66YorYMhVkRxxL-ma4l-23" value="Уведомление о подтверждении" style="verticalAlign=bottom;edgeStyle=elbowEdgeStyle;elbow=vertical;curved=0;rounded=0;dashed=1;dashPattern=2 3;endArrow=block;" edge="1" parent="1" source="g66YorYMhVkRxxL-ma4l-2" target="g66YorYMhVkRxxL-ma4l-1">
          <mxGeometry relative="1" as="geometry">
            <Array as="points">
              <mxPoint x="312" y="688" />
            </Array>
          </mxGeometry>
        </mxCell>
        <mxCell id="g66YorYMhVkRxxL-ma4l-24" value="Уведомление о бронировании" style="verticalAlign=bottom;edgeStyle=elbowEdgeStyle;elbow=vertical;curved=0;rounded=0;dashed=1;dashPattern=2 3;endArrow=block;" edge="1" parent="1" source="g66YorYMhVkRxxL-ma4l-2" target="g66YorYMhVkRxxL-ma4l-4">
          <mxGeometry relative="1" as="geometry">
            <Array as="points">
              <mxPoint x="742" y="742" />
            </Array>
          </mxGeometry>
        </mxCell>
        <mxCell id="g66YorYMhVkRxxL-ma4l-25" value="Отказ в оплате" style="verticalAlign=bottom;edgeStyle=elbowEdgeStyle;elbow=vertical;curved=0;rounded=0;dashed=1;dashPattern=2 3;endArrow=block;" edge="1" parent="1" source="g66YorYMhVkRxxL-ma4l-3" target="g66YorYMhVkRxxL-ma4l-2">
          <mxGeometry relative="1" as="geometry">
            <Array as="points">
              <mxPoint x="645" y="843" />
            </Array>
          </mxGeometry>
        </mxCell>
        <mxCell id="g66YorYMhVkRxxL-ma4l-26" value="Уведомление с предложением повторить" style="verticalAlign=bottom;edgeStyle=elbowEdgeStyle;elbow=vertical;curved=0;rounded=0;dashed=1;dashPattern=2 3;endArrow=block;" edge="1" parent="1" source="g66YorYMhVkRxxL-ma4l-2" target="g66YorYMhVkRxxL-ma4l-1">
          <mxGeometry relative="1" as="geometry">
            <Array as="points">
              <mxPoint x="312" y="897" />
            </Array>
          </mxGeometry>
        </mxCell>
        <mxCell id="g66YorYMhVkRxxL-ma4l-27" value="Формирование задач" style="verticalAlign=bottom;edgeStyle=elbowEdgeStyle;elbow=vertical;curved=0;rounded=0;endArrow=block;" edge="1" parent="1" source="g66YorYMhVkRxxL-ma4l-2" target="g66YorYMhVkRxxL-ma4l-4">
          <mxGeometry relative="1" as="geometry">
            <Array as="points">
              <mxPoint x="742" y="961" />
            </Array>
          </mxGeometry>
        </mxCell>
        <mxCell id="g66YorYMhVkRxxL-ma4l-28" value="Отправка задач" style="verticalAlign=bottom;edgeStyle=elbowEdgeStyle;elbow=vertical;curved=0;rounded=0;endArrow=block;" edge="1" parent="1" source="g66YorYMhVkRxxL-ma4l-4" target="g66YorYMhVkRxxL-ma4l-5">
          <mxGeometry relative="1" as="geometry">
            <Array as="points">
              <mxPoint x="1069" y="1015" />
            </Array>
          </mxGeometry>
        </mxCell>
        <mxCell id="g66YorYMhVkRxxL-ma4l-29" value="Подтверждение выполнения" style="verticalAlign=bottom;edgeStyle=elbowEdgeStyle;elbow=vertical;curved=0;rounded=0;endArrow=block;" edge="1" parent="1" source="g66YorYMhVkRxxL-ma4l-5" target="g66YorYMhVkRxxL-ma4l-2">
          <mxGeometry relative="1" as="geometry">
            <Array as="points">
              <mxPoint x="845" y="1116" />
            </Array>
          </mxGeometry>
        </mxCell>
        <mxCell id="g66YorYMhVkRxxL-ma4l-30" value="Отчет о задачах" style="verticalAlign=bottom;edgeStyle=elbowEdgeStyle;elbow=vertical;curved=0;rounded=0;dashed=1;dashPattern=2 3;endArrow=block;" edge="1" parent="1" source="g66YorYMhVkRxxL-ma4l-2" target="g66YorYMhVkRxxL-ma4l-4">
          <mxGeometry relative="1" as="geometry">
            <Array as="points">
              <mxPoint x="742" y="1195" />
            </Array>
          </mxGeometry>
        </mxCell>
        <mxCell id="g66YorYMhVkRxxL-ma4l-31" value="Уведомление о завершении мероприятия" style="verticalAlign=bottom;edgeStyle=elbowEdgeStyle;elbow=vertical;curved=0;rounded=0;dashed=1;dashPattern=2 3;endArrow=block;" edge="1" parent="1" source="g66YorYMhVkRxxL-ma4l-2" target="g66YorYMhVkRxxL-ma4l-1">
          <mxGeometry relative="1" as="geometry">
            <Array as="points">
              <mxPoint x="312" y="1259" />
            </Array>
          </mxGeometry>
        </mxCell>
        <mxCell id="g66YorYMhVkRxxL-ma4l-32" value="Отзыв о качестве" style="verticalAlign=bottom;edgeStyle=elbowEdgeStyle;elbow=vertical;curved=0;rounded=0;endArrow=block;" edge="1" parent="1" source="g66YorYMhVkRxxL-ma4l-1" target="g66YorYMhVkRxxL-ma4l-2">
          <mxGeometry relative="1" as="geometry">
            <Array as="points">
              <mxPoint x="309" y="1313" />
            </Array>
          </mxGeometry>
        </mxCell>
        <mxCell id="g66YorYMhVkRxxL-ma4l-33" value="Отчет об отзывах" style="verticalAlign=bottom;edgeStyle=elbowEdgeStyle;elbow=vertical;curved=0;rounded=0;dashed=1;dashPattern=2 3;endArrow=block;" edge="1" parent="1" source="g66YorYMhVkRxxL-ma4l-2" target="g66YorYMhVkRxxL-ma4l-6">
          <mxGeometry relative="1" as="geometry">
            <Array as="points">
              <mxPoint x="942" y="1367" />
            </Array>
          </mxGeometry>
        </mxCell>
      </root>
    </mxGraphModel>
  </diagram>
</mxfile>
